# xmcd
#
# Track frame offsets:
#	150
#	17052
#	35723
#	48081
#	62887
#	83404
#	98233
#	112203
#	131341
#	151437
#	175957
#	195782
#	217222
#
# Disc length: 3198 seconds
#
# Revision: 0
# Processed by: cddbd v1.5.2PL0 Copyright (c) Steve Scherf et al.
# Submitted via: dBpowerAMP V4.0
#
DISCID=ad0c7c0d
DTITLE=The Beautiful Loser Society - Aim Low
DYEAR=2008
DGENRE=Country Rock
TTITLE0=Delta Shine
TTITLE1=Hometown Hero
TTITLE2=The Best Thing
TTITLE3=Ole John Deere
TTITLE4=Talkin to the Devil
TTITLE5=One Of Those Days
TTITLE6=Killing Floor
TTITLE7=Swamp Thing
TTITLE8=License to Cry
TTITLE9=Guilty As Sin
TTITLE10=Baby's Been Drinkin
TTITLE11=Muddy Bayoiu
TTITLE12=Born in a Boxcar
EXTD=
EXTT0=
EXTT1=
EXTT2=
EXTT3=
EXTT4=
EXTT5=
EXTT6=
EXTT7=
EXTT8=
EXTT9=
EXTT10=
EXTT11=
EXTT12=
PLAYORDER=
